<mxfile host="app.diagrams.net" agent="Mozilla/5.0 (Macintosh; Intel Mac OS X 10_15_7) AppleWebKit/537.36 (KHTML, like Gecko) Chrome/133.0.0.0 Safari/537.36" version="26.2.13">
  <diagram id="C5RBs43oDa-KdzZeNtuy" name="Page-1">
    <mxGraphModel dx="798" dy="631" grid="1" gridSize="10" guides="1" tooltips="1" connect="1" arrows="1" fold="1" page="1" pageScale="1" pageWidth="1100" pageHeight="850" math="0" shadow="0">
      <root>
        <mxCell id="WIyWlLk6GJQsqaUBKTNV-0" />
        <mxCell id="WIyWlLk6GJQsqaUBKTNV-1" parent="WIyWlLk6GJQsqaUBKTNV-0" />
        <mxCell id="UkDBAxyQickxF4oHBvT--14" value="" style="edgeStyle=orthogonalEdgeStyle;rounded=0;orthogonalLoop=1;jettySize=auto;html=1;" edge="1" parent="WIyWlLk6GJQsqaUBKTNV-1" source="UkDBAxyQickxF4oHBvT--11" target="UkDBAxyQickxF4oHBvT--12">
          <mxGeometry relative="1" as="geometry" />
        </mxCell>
        <mxCell id="UkDBAxyQickxF4oHBvT--11" value="START" style="ellipse;whiteSpace=wrap;html=1;fillColor=light-dark(#E3C800,#DAA900);strokeColor=#B09500;fontColor=light-dark(#000000,#000000);" vertex="1" parent="WIyWlLk6GJQsqaUBKTNV-1">
          <mxGeometry x="370" y="100" width="120" height="70" as="geometry" />
        </mxCell>
        <mxCell id="UkDBAxyQickxF4oHBvT--17" value="" style="edgeStyle=orthogonalEdgeStyle;rounded=0;orthogonalLoop=1;jettySize=auto;html=1;" edge="1" parent="WIyWlLk6GJQsqaUBKTNV-1" source="UkDBAxyQickxF4oHBvT--12" target="UkDBAxyQickxF4oHBvT--16">
          <mxGeometry relative="1" as="geometry" />
        </mxCell>
        <mxCell id="UkDBAxyQickxF4oHBvT--12" value="int type[8];&#xa;&amp;nbsp; &amp;nbsp; char hmbqa[6];&#xa;&amp;nbsp; &amp;nbsp; int threetypes[3]={0,0,0};&#xa;&amp;nbsp; &amp;nbsp; string hmbq[6]" style="shape=internalStorage;whiteSpace=wrap;html=1;backgroundOutline=1;fillColor=#b0e3e6;strokeColor=#0e8088;align=center;" vertex="1" parent="WIyWlLk6GJQsqaUBKTNV-1">
          <mxGeometry x="352.5" y="200" width="155" height="80" as="geometry" />
        </mxCell>
        <mxCell id="UkDBAxyQickxF4oHBvT--19" value="" style="edgeStyle=orthogonalEdgeStyle;rounded=0;orthogonalLoop=1;jettySize=auto;html=1;" edge="1" parent="WIyWlLk6GJQsqaUBKTNV-1" source="UkDBAxyQickxF4oHBvT--16" target="UkDBAxyQickxF4oHBvT--18">
          <mxGeometry relative="1" as="geometry" />
        </mxCell>
        <mxCell id="UkDBAxyQickxF4oHBvT--16" value="Please answer the questions (Y/N)" style="shape=parallelogram;perimeter=parallelogramPerimeter;whiteSpace=wrap;html=1;fixedSize=1;fillColor=#d5e8d4;strokeColor=#82b366;gradientColor=#97d077;" vertex="1" parent="WIyWlLk6GJQsqaUBKTNV-1">
          <mxGeometry x="355" y="310" width="150" height="50" as="geometry" />
        </mxCell>
        <mxCell id="UkDBAxyQickxF4oHBvT--46" style="edgeStyle=orthogonalEdgeStyle;rounded=0;orthogonalLoop=1;jettySize=auto;html=1;" edge="1" parent="WIyWlLk6GJQsqaUBKTNV-1" source="UkDBAxyQickxF4oHBvT--18" target="UkDBAxyQickxF4oHBvT--45">
          <mxGeometry relative="1" as="geometry" />
        </mxCell>
        <mxCell id="UkDBAxyQickxF4oHBvT--18" value="&lt;b&gt;condition&lt;/b&gt;&lt;div&gt;counter &amp;lt; 6&lt;/div&gt;" style="rhombus;whiteSpace=wrap;html=1;fillColor=light-dark(#E51400,#DA4035);strokeColor=#B20000;fontColor=#ffffff;" vertex="1" parent="WIyWlLk6GJQsqaUBKTNV-1">
          <mxGeometry x="375" y="410" width="110" height="80" as="geometry" />
        </mxCell>
        <mxCell id="UkDBAxyQickxF4oHBvT--34" value="for" style="text;html=1;align=center;verticalAlign=middle;whiteSpace=wrap;rounded=0;" vertex="1" parent="WIyWlLk6GJQsqaUBKTNV-1">
          <mxGeometry x="370" y="390" width="60" height="30" as="geometry" />
        </mxCell>
        <mxCell id="UkDBAxyQickxF4oHBvT--47" style="edgeStyle=orthogonalEdgeStyle;rounded=0;orthogonalLoop=1;jettySize=auto;html=1;" edge="1" parent="WIyWlLk6GJQsqaUBKTNV-1" source="UkDBAxyQickxF4oHBvT--45" target="UkDBAxyQickxF4oHBvT--22">
          <mxGeometry relative="1" as="geometry" />
        </mxCell>
        <mxCell id="UkDBAxyQickxF4oHBvT--45" value="char answer" style="shape=internalStorage;whiteSpace=wrap;html=1;backgroundOutline=1;fillColor=#b0e3e6;strokeColor=#0e8088;align=center;" vertex="1" parent="WIyWlLk6GJQsqaUBKTNV-1">
          <mxGeometry x="387.5" y="510" width="85" height="30" as="geometry" />
        </mxCell>
        <mxCell id="UkDBAxyQickxF4oHBvT--28" style="edgeStyle=orthogonalEdgeStyle;rounded=0;orthogonalLoop=1;jettySize=auto;html=1;exitX=0.5;exitY=1;exitDx=0;exitDy=0;" edge="1" parent="WIyWlLk6GJQsqaUBKTNV-1" source="UkDBAxyQickxF4oHBvT--22" target="UkDBAxyQickxF4oHBvT--27">
          <mxGeometry relative="1" as="geometry" />
        </mxCell>
        <mxCell id="UkDBAxyQickxF4oHBvT--22" value="True" style="text;html=1;align=center;verticalAlign=middle;whiteSpace=wrap;rounded=0;" vertex="1" parent="WIyWlLk6GJQsqaUBKTNV-1">
          <mxGeometry x="400" y="560" width="60" height="30" as="geometry" />
        </mxCell>
        <mxCell id="UkDBAxyQickxF4oHBvT--31" style="edgeStyle=orthogonalEdgeStyle;rounded=0;orthogonalLoop=1;jettySize=auto;html=1;entryX=0.5;entryY=0;entryDx=0;entryDy=0;" edge="1" parent="WIyWlLk6GJQsqaUBKTNV-1" source="UkDBAxyQickxF4oHBvT--27" target="UkDBAxyQickxF4oHBvT--30">
          <mxGeometry relative="1" as="geometry" />
        </mxCell>
        <mxCell id="UkDBAxyQickxF4oHBvT--27" value="do" style="rounded=0;whiteSpace=wrap;html=1;fillColor=light-dark(#000000,#6EBBFF);shadow=0;glass=0;opacity=40;textOpacity=50;" vertex="1" parent="WIyWlLk6GJQsqaUBKTNV-1">
          <mxGeometry x="401.25" y="620" width="57.5" height="20" as="geometry" />
        </mxCell>
        <mxCell id="UkDBAxyQickxF4oHBvT--33" value="" style="edgeStyle=orthogonalEdgeStyle;rounded=0;orthogonalLoop=1;jettySize=auto;html=1;" edge="1" parent="WIyWlLk6GJQsqaUBKTNV-1" source="UkDBAxyQickxF4oHBvT--30" target="UkDBAxyQickxF4oHBvT--32">
          <mxGeometry relative="1" as="geometry" />
        </mxCell>
        <mxCell id="UkDBAxyQickxF4oHBvT--30" value="hmbq[counter]" style="rounded=0;whiteSpace=wrap;html=1;fillColor=#ffcd28;gradientColor=#ffa500;strokeColor=#d79b00;" vertex="1" parent="WIyWlLk6GJQsqaUBKTNV-1">
          <mxGeometry x="387.5" y="670" width="85" height="40" as="geometry" />
        </mxCell>
        <mxCell id="UkDBAxyQickxF4oHBvT--36" value="" style="edgeStyle=orthogonalEdgeStyle;rounded=0;orthogonalLoop=1;jettySize=auto;html=1;" edge="1" parent="WIyWlLk6GJQsqaUBKTNV-1" source="UkDBAxyQickxF4oHBvT--32" target="UkDBAxyQickxF4oHBvT--35">
          <mxGeometry relative="1" as="geometry" />
        </mxCell>
        <mxCell id="UkDBAxyQickxF4oHBvT--32" value="Question&lt;div&gt;(hmbq with counter)&lt;/div&gt;" style="shape=parallelogram;perimeter=parallelogramPerimeter;whiteSpace=wrap;html=1;fixedSize=1;fillColor=#d5e8d4;strokeColor=#82b366;rounded=0;gradientColor=#97d077;" vertex="1" parent="WIyWlLk6GJQsqaUBKTNV-1">
          <mxGeometry x="360" y="740" width="140" height="50" as="geometry" />
        </mxCell>
        <mxCell id="UkDBAxyQickxF4oHBvT--49" value="" style="edgeStyle=orthogonalEdgeStyle;rounded=0;orthogonalLoop=1;jettySize=auto;html=1;" edge="1" parent="WIyWlLk6GJQsqaUBKTNV-1" source="UkDBAxyQickxF4oHBvT--35" target="UkDBAxyQickxF4oHBvT--48">
          <mxGeometry relative="1" as="geometry" />
        </mxCell>
        <mxCell id="UkDBAxyQickxF4oHBvT--35" value="Inputs answer&lt;div&gt;(depends on counter)&lt;/div&gt;" style="shape=parallelogram;perimeter=parallelogramPerimeter;whiteSpace=wrap;html=1;fixedSize=1;fillColor=#dae8fc;strokeColor=#6c8ebf;rounded=0;gradientColor=#7ea6e0;" vertex="1" parent="WIyWlLk6GJQsqaUBKTNV-1">
          <mxGeometry x="357.5" y="820" width="145" height="60" as="geometry" />
        </mxCell>
        <mxCell id="UkDBAxyQickxF4oHBvT--51" style="edgeStyle=orthogonalEdgeStyle;rounded=0;orthogonalLoop=1;jettySize=auto;html=1;entryX=0.5;entryY=0;entryDx=0;entryDy=0;" edge="1" parent="WIyWlLk6GJQsqaUBKTNV-1" source="UkDBAxyQickxF4oHBvT--48" target="UkDBAxyQickxF4oHBvT--50">
          <mxGeometry relative="1" as="geometry" />
        </mxCell>
        <mxCell id="UkDBAxyQickxF4oHBvT--48" value="answer = smolcaps answer" style="whiteSpace=wrap;html=1;fillColor=#ffcd28;strokeColor=#d79b00;rounded=0;gradientColor=#ffa500;" vertex="1" parent="WIyWlLk6GJQsqaUBKTNV-1">
          <mxGeometry x="370" y="910" width="120" height="50" as="geometry" />
        </mxCell>
        <mxCell id="UkDBAxyQickxF4oHBvT--63" value="" style="edgeStyle=orthogonalEdgeStyle;rounded=0;orthogonalLoop=1;jettySize=auto;html=1;" edge="1" parent="WIyWlLk6GJQsqaUBKTNV-1" source="UkDBAxyQickxF4oHBvT--50" target="UkDBAxyQickxF4oHBvT--62">
          <mxGeometry relative="1" as="geometry" />
        </mxCell>
        <mxCell id="UkDBAxyQickxF4oHBvT--50" value="&lt;b&gt;ans != Y &amp;amp;&amp;amp;&lt;/b&gt;&lt;div&gt;&lt;b&gt;&amp;nbsp;ans != N&lt;/b&gt;&lt;/div&gt;" style="rhombus;whiteSpace=wrap;html=1;fillColor=light-dark(#E51400,#F64D42);strokeColor=#B20000;fontColor=#ffffff;" vertex="1" parent="WIyWlLk6GJQsqaUBKTNV-1">
          <mxGeometry x="375" y="990" width="110" height="80" as="geometry" />
        </mxCell>
        <mxCell id="UkDBAxyQickxF4oHBvT--52" value="While" style="text;html=1;align=center;verticalAlign=middle;whiteSpace=wrap;rounded=0;" vertex="1" parent="WIyWlLk6GJQsqaUBKTNV-1">
          <mxGeometry x="360" y="970" width="60" height="30" as="geometry" />
        </mxCell>
        <mxCell id="UkDBAxyQickxF4oHBvT--55" value="" style="edgeStyle=orthogonalEdgeStyle;rounded=0;orthogonalLoop=1;jettySize=auto;html=1;" edge="1" parent="WIyWlLk6GJQsqaUBKTNV-1" source="UkDBAxyQickxF4oHBvT--50" target="UkDBAxyQickxF4oHBvT--54">
          <mxGeometry relative="1" as="geometry">
            <mxPoint x="460" y="650" as="targetPoint" />
            <mxPoint x="485" y="1030" as="sourcePoint" />
            <Array as="points">
              <mxPoint x="571" y="1030" />
            </Array>
          </mxGeometry>
        </mxCell>
        <mxCell id="UkDBAxyQickxF4oHBvT--57" style="edgeStyle=orthogonalEdgeStyle;rounded=0;orthogonalLoop=1;jettySize=auto;html=1;" edge="1" parent="WIyWlLk6GJQsqaUBKTNV-1" source="UkDBAxyQickxF4oHBvT--54">
          <mxGeometry relative="1" as="geometry">
            <mxPoint x="470" y="660" as="targetPoint" />
            <Array as="points">
              <mxPoint x="661" y="850" />
            </Array>
          </mxGeometry>
        </mxCell>
        <mxCell id="UkDBAxyQickxF4oHBvT--54" value="True" style="text;html=1;align=center;verticalAlign=middle;whiteSpace=wrap;rounded=0;" vertex="1" parent="WIyWlLk6GJQsqaUBKTNV-1">
          <mxGeometry x="540" y="825" width="60" height="50" as="geometry" />
        </mxCell>
        <mxCell id="UkDBAxyQickxF4oHBvT--65" value="" style="edgeStyle=orthogonalEdgeStyle;rounded=0;orthogonalLoop=1;jettySize=auto;html=1;" edge="1" parent="WIyWlLk6GJQsqaUBKTNV-1" source="UkDBAxyQickxF4oHBvT--62" target="UkDBAxyQickxF4oHBvT--64">
          <mxGeometry relative="1" as="geometry" />
        </mxCell>
        <mxCell id="UkDBAxyQickxF4oHBvT--62" value="hmbqa[counter] = answer" style="whiteSpace=wrap;html=1;fillColor=#ffcd28;strokeColor=#d79b00;gradientColor=#ffa500;" vertex="1" parent="WIyWlLk6GJQsqaUBKTNV-1">
          <mxGeometry x="380" y="1100" width="100" height="40" as="geometry" />
        </mxCell>
        <mxCell id="UkDBAxyQickxF4oHBvT--64" value="answer == Y" style="rhombus;whiteSpace=wrap;html=1;fillColor=#e6d0de;strokeColor=#996185;gradientColor=#d5739d;" vertex="1" parent="WIyWlLk6GJQsqaUBKTNV-1">
          <mxGeometry x="380" y="1170" width="100" height="60" as="geometry" />
        </mxCell>
        <mxCell id="UkDBAxyQickxF4oHBvT--66" value="If" style="text;html=1;align=center;verticalAlign=middle;whiteSpace=wrap;rounded=0;" vertex="1" parent="WIyWlLk6GJQsqaUBKTNV-1">
          <mxGeometry x="360" y="1150" width="60" height="30" as="geometry" />
        </mxCell>
      </root>
    </mxGraphModel>
  </diagram>
</mxfile>
